<?xml version="1.0" encoding="iso-8859-1"?>
<!-- Generator: Adobe Illustrator 19.0.0, SVG Export Plug-In . SVG Version: 6.00 Build 0)  -->
<svg version="1.1" id="Layer_1" xmlns="http://www.w3.org/2000/svg" xmlns:xlink="http://www.w3.org/1999/xlink" x="0px" y="0px"
	 viewBox="0 0 481.882 481.882" style="enable-background:new 0 0 481.882 481.882;" xml:space="preserve">
<path style="fill:#EBF0F3;" d="M256,0H11.445C5.421,0,0,4.819,0,11.445v458.993c0,6.024,4.819,11.445,11.445,11.445h342.136
	c6.024,0,11.445-4.819,11.445-11.445V108.424c0-3.012-1.205-6.024-3.012-7.831L264.433,3.012C262.024,1.205,259.012,0,256,0z"/>
<path style="fill:#D5D6DB;" d="M272.264,103.605h91.558c-0.602-1.205-1.205-2.409-2.409-3.012l-48.791-48.791L264.433,3.012
	c-1.205-1.205-1.807-1.807-3.012-2.409V92.16C260.819,98.786,265.638,103.605,272.264,103.605z"/>
<g>
	<rect x="33.732" y="151.793" style="fill:#E1E6E9;" width="296.96" height="17.468"/>
	<rect x="33.732" y="202.993" style="fill:#E1E6E9;" width="296.96" height="17.468"/>
	<rect x="33.732" y="254.193" style="fill:#E1E6E9;" width="222.871" height="17.468"/>
	<rect x="33.732" y="407.793" style="fill:#E1E6E9;" width="144.565" height="17.468"/>
	<path style="fill:#E1E6E9;" d="M364.424,470.438V263.228c-57.826,7.831-102.4,57.826-102.4,117.459
		c0,42.767,22.889,80.113,57.224,101.195h34.334C359.605,481.882,364.424,477.064,364.424,470.438z"/>
	<path style="fill:#E1E6E9;" d="M33.732,305.393v17.468h243.351c3.614-6.024,7.228-12.047,12.047-17.468H33.732z"/>
	<path style="fill:#E1E6E9;" d="M33.732,356.593v17.468h228.292c0.602-6.024,1.205-12.047,1.807-17.468L33.732,356.593
		L33.732,356.593z"/>
</g>
<g>
	<path style="fill:#D5D6DB;" d="M330.692,305.393h-42.165c-4.216,5.421-8.433,11.445-12.047,17.468h54.212V305.393z"/>
	<path style="fill:#D5D6DB;" d="M330.692,356.593h-66.259c-1.205,5.421-1.807,11.445-1.807,17.468h68.668v-17.468H330.692z"/>
</g>
<circle style="fill:#44C4A1;" cx="380.687" cy="380.687" r="101.195"/>
<polygon style="fill:#3EA69B;" points="449.355,372.856 397.553,372.856 397.553,321.054 363.821,321.054 363.821,372.856 
	312.019,372.856 312.019,405.986 363.821,405.986 363.821,457.788 397.553,457.788 397.553,405.986 449.355,405.986 "/>
<polygon style="fill:#FFFFFF;" points="449.355,363.821 397.553,363.821 397.553,312.019 363.821,312.019 363.821,363.821 
	312.019,363.821 312.019,397.553 363.821,397.553 363.821,449.355 397.553,449.355 397.553,397.553 449.355,397.553 "/>
<g>
</g>
<g>
</g>
<g>
</g>
<g>
</g>
<g>
</g>
<g>
</g>
<g>
</g>
<g>
</g>
<g>
</g>
<g>
</g>
<g>
</g>
<g>
</g>
<g>
</g>
<g>
</g>
<g>
</g>
</svg>
