<?xml version="1.0" encoding="iso-8859-1"?>
<!-- Generator: Adobe Illustrator 19.0.0, SVG Export Plug-In . SVG Version: 6.00 Build 0)  -->
<svg version="1.1" id="Layer_1" xmlns="http://www.w3.org/2000/svg" xmlns:xlink="http://www.w3.org/1999/xlink" x="0px" y="0px"
	 viewBox="0 0 481.882 481.882" style="enable-background:new 0 0 481.882 481.882;" xml:space="preserve">
<path style="fill:#64798A;" d="M470.438,0.301H11.445C4.819,0.301,0,5.722,0,11.746v68.668h481.882V11.746
	C481.882,5.722,476.461,0.301,470.438,0.301z"/>
<circle style="fill:#FCD462;" cx="358.4" cy="40.659" r="13.252"/>
<circle style="fill:#44C4A1;" cx="405.384" cy="40.659" r="13.252"/>
<circle style="fill:#E56353;" cx="452.367" cy="40.659" r="13.252"/>
<path style="fill:#EBF0F3;" d="M103.002,80.414c-2.409,0-4.819-1.807-5.421-3.614l-6.626-19.275
	c-0.602-2.409-3.012-3.614-5.421-3.614H26.504c-2.409,0-4.819,1.807-5.421,3.614L14.456,76.8c-0.602,2.409-3.012,3.614-5.421,3.614
	H0v389.722c0,6.626,5.421,11.445,11.445,11.445h458.391c6.626,0,11.445-5.421,11.445-11.445V80.414H103.002z"/>
<path style="fill:#FFFFFF;" d="M103.002,80.414c-2.409,0-4.819-1.807-5.421-3.614l-6.626-19.275
	c-0.602-2.409-3.012-3.614-5.421-3.614H26.504c-2.409,0-4.819,1.807-5.421,3.614L14.456,76.8c-0.602,2.409-3.012,3.614-5.421,3.614
	H0v377.675c0,6.626,5.421,11.445,11.445,11.445h458.391c6.626,0,11.445-5.421,11.445-11.445V80.414H103.002z"/>
<path style="fill:#EBF0F3;" d="M105.412,71.981h81.92l-5.421-14.456c-0.602-2.409-3.012-3.614-5.421-3.614H98.786
	c0,0.602,0.602,0.602,0.602,1.205L105.412,71.981z"/>
<g>
	<path style="fill:#E56353;" d="M215.642,362.315l-56.019,43.369c-25.299,19.878-62.645,15.661-82.522-10.24
		c-19.878-25.299-15.059-62.042,10.24-81.92l55.416-43.369c25.299-19.878,62.645-15.661,82.522,10.24
		C245.76,305.694,240.941,342.438,215.642,362.315z M103.605,334.005c-13.854,10.842-16.866,31.322-5.421,45.779
		c10.842,13.854,31.322,16.866,45.779,5.421l55.416-43.369c13.854-10.842,16.866-31.322,5.421-45.779
		c-10.842-13.854-31.322-16.866-45.779-5.421L103.605,334.005z"/>
	<path style="fill:#E56353;" d="M394.541,222.569l-55.417,43.369c-25.299,19.878-62.645,15.661-82.522-10.24
		c-19.878-25.299-15.661-62.645,10.24-82.522l55.416-43.369c25.299-19.878,62.645-15.661,82.522,10.24
		C424.659,165.346,419.84,202.692,394.541,222.569z M282.504,194.259c-13.854,10.842-16.866,31.322-5.421,45.779
		c10.842,13.854,31.322,16.866,45.779,5.421l55.416-43.369c13.854-10.842,16.866-31.322,5.421-45.779
		c-10.842-13.854-31.322-16.866-45.779-5.421L282.504,194.259z"/>
</g>
<path style="fill:#D15241;" d="M291.539,211.727L174.08,303.285c-5.421,4.216-6.626,12.649-2.409,18.673
	c4.216,5.421,12.649,6.626,18.673,2.409l117.459-92.16c5.421-4.216,6.626-12.649,2.409-18.673
	C305.393,208.113,296.96,207.511,291.539,211.727z"/>
<g>
</g>
<g>
</g>
<g>
</g>
<g>
</g>
<g>
</g>
<g>
</g>
<g>
</g>
<g>
</g>
<g>
</g>
<g>
</g>
<g>
</g>
<g>
</g>
<g>
</g>
<g>
</g>
<g>
</g>
</svg>
