<?xml version="1.0" encoding="iso-8859-1"?>
<!-- Generator: Adobe Illustrator 19.0.0, SVG Export Plug-In . SVG Version: 6.00 Build 0)  -->
<svg version="1.1" id="Layer_1" xmlns="http://www.w3.org/2000/svg" xmlns:xlink="http://www.w3.org/1999/xlink" x="0px" y="0px"
	 viewBox="0 0 481.882 481.882" style="enable-background:new 0 0 481.882 481.882;" xml:space="preserve">
<path style="fill:#3A556A;" d="M448.753,69.271H33.129c-6.024,0-10.842,4.819-10.842,10.842v292.744h437.911V80.113
	C460.198,74.089,454.776,69.271,448.753,69.271z"/>
<rect x="47.465" y="92.648" style="fill:#64798A;" width="386.711" height="257.205"/>
<rect y="372.856" style="fill:#EBF0F3;" width="481.882" height="30.118"/>
<g>
	<polygon style="fill:#D5D6DB;" points="481.28,402.974 0.602,402.974 32.527,412.612 449.355,412.612 	"/>
	<rect x="208.414" y="384.301" style="fill:#D5D6DB;" width="65.054" height="7.228"/>
</g>
<path style="fill:#E1E6E9;" d="M335.511,179.501c-1.205,0-1.807,0-3.012,0.602c-6.024-15.661-20.48-27.106-37.948-28.913
	c0-1.205,0.602-2.409,0.602-3.012c0-18.673-15.059-33.732-33.732-33.732c-12.649,0-22.889,6.626-28.913,16.866
	c-8.433-5.421-18.071-8.433-28.913-8.433c-30.118,0-54.814,24.696-54.814,54.814c0,1.205,0,1.807,0,2.409c-0.602,0-1.205,0-1.807,0
	c-18.673,0-33.732,15.059-33.732,33.732s15.059,33.732,33.732,33.732h188.536c18.673,0,33.732-15.059,33.732-33.732
	S354.184,179.501,335.511,179.501z"/>
<polygon style="fill:#3A556A;" points="287.925,266.24 240.941,221.064 193.958,266.24 212.028,266.24 212.028,328.282 
	269.854,328.282 269.854,266.24 "/>
<polygon style="fill:#E56353;" points="287.925,257.205 240.941,212.631 193.958,257.205 212.028,257.205 212.028,319.247 
	269.854,319.247 269.854,257.205 "/>
<g>
</g>
<g>
</g>
<g>
</g>
<g>
</g>
<g>
</g>
<g>
</g>
<g>
</g>
<g>
</g>
<g>
</g>
<g>
</g>
<g>
</g>
<g>
</g>
<g>
</g>
<g>
</g>
<g>
</g>
</svg>
