<?xml version="1.0" encoding="iso-8859-1"?>
<!-- Generator: Adobe Illustrator 19.0.0, SVG Export Plug-In . SVG Version: 6.00 Build 0)  -->
<svg version="1.1" id="Layer_1" xmlns="http://www.w3.org/2000/svg" xmlns:xlink="http://www.w3.org/1999/xlink" x="0px" y="0px"
	 viewBox="0 0 481.882 481.882" style="enable-background:new 0 0 481.882 481.882;" xml:space="preserve">
<polygon style="fill:#E1E6E9;" points="268.082,0 1.239,0 1.239,481.882 362.651,481.882 362.651,94.569 "/>
<polygon style="fill:#FFFFFF;" points="268.082,0 1.239,0 1.239,464.414 362.651,464.414 362.651,94.569 "/>
<polygon style="fill:#EBF0F3;" points="268.082,94.569 362.651,94.569 268.082,0 "/>
<polygon style="fill:#E1E6E9;" points="268.082,94.569 362.651,156.009 362.651,94.569 "/>
<rect x="103.037" y="85.534" style="fill:#27A2DB;" width="158.419" height="14.456"/>
<g>
	<rect x="44.006" y="148.781" style="fill:#E1E6E9;" width="276.48" height="14.456"/>
	<rect x="44.006" y="193.355" style="fill:#E1E6E9;" width="276.48" height="14.456"/>
	<rect x="44.006" y="238.532" style="fill:#E1E6E9;" width="276.48" height="14.456"/>
	<rect x="44.006" y="283.708" style="fill:#E1E6E9;" width="276.48" height="14.456"/>
	<rect x="44.006" y="328.885" style="fill:#E1E6E9;" width="276.48" height="14.456"/>
</g>
<rect x="44.006" y="374.061" style="fill:#E56353;" width="93.365" height="14.456"/>
<rect x="328.168" y="216.433" transform="matrix(0.7071 0.7071 -0.7071 0.7071 337.5868 -143.0082)" style="fill:#44C4A1;" width="26.503" height="239.132"/>
<rect x="309.356" y="197.363" transform="matrix(0.7071 0.7071 -0.7071 0.7071 318.5922 -135.2921)" style="fill:#3EA69B;" width="26.503" height="239.132"/>
<rect x="290.941" y="178.779" transform="matrix(0.7071 0.7071 -0.7071 0.7071 300.0573 -127.7134)" style="fill:#31978C;" width="26.503" height="239.132"/>
<rect x="370.793" y="224.227" transform="matrix(0.7071 0.7071 -0.7071 0.7071 282.2945 -223.4283)" style="fill:#E56353;" width="80.112" height="9.638"/>
<path style="fill:#64798A;" d="M478.303,206.607l-12.649-12.649l-41.562,41.562l18.673,18.673l36.141-36.141
	C481.315,215.04,481.315,209.619,478.303,206.607z"/>
<rect x="405.247" y="191.541" transform="matrix(-0.7071 0.7071 -0.7071 -0.7071 886.9951 42.1799)" style="fill:#3A556A;" width="59.03" height="26.503"/>
<path style="fill:#2F4859;" d="M446.378,174.682l-12.649-12.649c-3.012-3.012-8.433-3.012-12.047,0l-36.141,36.141l18.673,18.673
	L446.378,174.682z"/>
<path style="fill:#FCD462;" d="M209.653,373.459l-14.456,49.393c5.421,0,11.445,1.807,15.661,6.024
	c4.216,4.216,6.626,10.24,6.024,15.661l49.393-14.456L209.653,373.459z"/>
<path style="fill:#64798A;" d="M210.858,428.875c-4.216-4.216-10.24-6.626-15.661-6.024l-7.228,23.492
	c-1.205,3.012,1.807,6.024,5.421,5.421l23.492-7.228C217.484,439.115,215.075,433.092,210.858,428.875z"/>
<g>
</g>
<g>
</g>
<g>
</g>
<g>
</g>
<g>
</g>
<g>
</g>
<g>
</g>
<g>
</g>
<g>
</g>
<g>
</g>
<g>
</g>
<g>
</g>
<g>
</g>
<g>
</g>
<g>
</g>
</svg>
