<?xml version="1.0" encoding="iso-8859-1"?>
<!-- Generator: Adobe Illustrator 19.0.0, SVG Export Plug-In . SVG Version: 6.00 Build 0)  -->
<svg version="1.1" id="Layer_1" xmlns="http://www.w3.org/2000/svg" xmlns:xlink="http://www.w3.org/1999/xlink" x="0px" y="0px"
	 viewBox="0 0 482.485 482.485" style="enable-background:new 0 0 482.485 482.485;" xml:space="preserve">
<path style="fill:#E1E6E9;" d="M267.144,0H48.489c-5.421,0-10.24,4.819-10.24,10.24v411.407c0,5.421,4.819,10.24,10.24,10.24
	h305.995c5.421,0,10.24-4.819,10.24-10.24V96.979c0-2.409-1.205-5.421-3.012-7.228L274.372,3.012C272.565,1.205,270.155,0,267.144,0
	z"/>
<g>
	<path style="fill:#D5D6DB;" d="M281.6,92.762h81.92c-0.602-1.205-1.205-1.807-1.807-3.012l-43.369-43.369L274.372,3.012
		c-0.602-0.602-1.807-1.205-3.012-1.807v81.92C271.36,88.546,276.179,92.762,281.6,92.762z"/>
	<rect x="68.367" y="135.529" style="fill:#D5D6DB;" width="266.24" height="15.661"/>
	<rect x="68.367" y="181.911" style="fill:#D5D6DB;" width="266.24" height="15.661"/>
	<rect x="68.367" y="227.689" style="fill:#D5D6DB;" width="199.981" height="15.661"/>
	<rect x="68.367" y="365.026" style="fill:#D5D6DB;" width="129.506" height="15.661"/>
	<polygon style="fill:#D5D6DB;" points="68.367,319.247 68.367,334.908 272.565,334.908 334.005,334.908 334.005,319.247 
		274.974,319.247 	"/>
	<polygon style="fill:#D5D6DB;" points="296.659,273.468 68.367,273.468 68.367,289.129 285.816,289.129 334.005,289.129 
		334.005,273.468 	"/>
</g>
<path style="fill:#EBF0F3;" d="M347.256,50.598H128c-5.421,0-10.24,4.819-10.24,10.24v411.407c0,5.421,4.819,10.24,10.24,10.24
	h305.995c5.421,0,10.24-4.819,10.24-10.24V147.576c0-2.409-1.205-5.421-3.012-7.228l-86.739-86.739
	C352.678,51.802,350.268,50.598,347.256,50.598z"/>
<g>
	<path style="fill:#D5D6DB;" d="M361.713,143.36h81.92c-0.602-1.205-1.205-1.807-1.807-3.012l-43.369-43.369l-43.369-43.369
		c-0.602-0.602-1.807-1.205-3.012-1.807v81.92C351.473,138.541,356.292,143.36,361.713,143.36z"/>
	<rect x="148.48" y="186.127" style="fill:#D5D6DB;" width="266.24" height="15.661"/>
	<rect x="148.48" y="231.906" style="fill:#D5D6DB;" width="266.24" height="15.661"/>
	<rect x="148.48" y="278.287" style="fill:#D5D6DB;" width="199.981" height="15.661"/>
	<rect x="148.48" y="415.624" style="fill:#D5D6DB;" width="129.506" height="15.661"/>
	<polygon style="fill:#D5D6DB;" points="148.48,369.845 148.48,385.506 352.678,385.506 414.118,385.506 414.118,369.845 
		354.485,369.845 	"/>
	<polygon style="fill:#D5D6DB;" points="376.772,324.066 148.48,324.066 148.48,339.727 365.929,339.727 414.118,339.727 
		414.118,324.066 	"/>
</g>
<g>
</g>
<g>
</g>
<g>
</g>
<g>
</g>
<g>
</g>
<g>
</g>
<g>
</g>
<g>
</g>
<g>
</g>
<g>
</g>
<g>
</g>
<g>
</g>
<g>
</g>
<g>
</g>
<g>
</g>
</svg>
