<?xml version="1.0" encoding="iso-8859-1"?>
<!-- Generator: Adobe Illustrator 19.0.0, SVG Export Plug-In . SVG Version: 6.00 Build 0)  -->
<svg version="1.1" id="Layer_1" xmlns="http://www.w3.org/2000/svg" xmlns:xlink="http://www.w3.org/1999/xlink" x="0px" y="0px"
	 viewBox="0 0 481.882 481.882" style="enable-background:new 0 0 481.882 481.882;" xml:space="preserve">
<path style="fill:#3A556A;" d="M458.993,136.734v304.188H22.889V136.734c0-6.024,4.819-11.445,11.445-11.445h413.816
	C454.174,125.289,458.993,130.108,458.993,136.734z"/>
<rect y="440.32" style="fill:#EBF0F3;" width="481.882" height="31.322"/>
<g>
	<polygon style="fill:#D5D6DB;" points="481.28,471.642 0.602,471.642 33.732,481.882 448.151,481.882 	"/>
	<rect x="207.209" y="452.367" style="fill:#D5D6DB;" width="67.464" height="7.228"/>
</g>
<rect x="49.393" y="149.384" style="fill:#64798A;" width="383.096" height="266.842"/>
<path style="fill:#FFFFFF;" d="M354.184,85.534C349.967,37.346,310.212,0,261.421,0c-25.901,0-49.393,10.24-66.259,27.106
	c-6.626-3.012-13.854-4.819-21.685-4.819c-28.311,0-51.802,22.889-51.802,51.802c0,4.216,0.602,8.433,1.205,12.047
	c-24.094,4.819-42.165,25.299-42.165,50.598c0,28.311,22.889,51.802,51.802,51.802h216.245c28.311,0,51.802-22.889,51.802-51.802
	C400.565,110.231,380.085,87.944,354.184,85.534z"/>
<g>
	<path style="fill:#EBF0F3;" d="M116.856,112.64l18.071-3.614l-1.807-7.831l-6.626,1.205c-9.035,1.807-16.866,7.228-22.287,15.059
		C108.424,115.652,112.038,113.845,116.856,112.64z"/>
	<path style="fill:#EBF0F3;" d="M352.376,103.002l-14.456-1.205l-1.205-14.456c-3.614-39.153-36.744-69.271-75.897-69.271
		c-20.48,0-39.153,7.831-53.609,22.287l-8.433,8.433l-10.842-5.421c-4.819-2.409-9.638-3.012-14.456-3.012
		c-12.047,0-22.287,6.024-28.311,15.661c5.421-3.614,12.047-5.421,18.673-5.421c4.819,0,9.638,1.205,14.456,3.012l10.842,5.421
		l8.433-8.433c14.456-15.661,33.732-23.492,53.609-23.492c39.153,0,72.282,30.72,75.896,69.271l1.205,14.456l14.456,1.205
		c17.468,1.807,30.72,16.264,30.72,33.732c0,6.626-1.807,13.252-5.421,18.673c9.035-6.024,15.661-16.866,15.661-28.311
		C383.096,119.266,369.845,104.809,352.376,103.002z"/>
</g>
<path style="fill:#3EA69B;" d="M240.941,211.426v160.226c43.972,0,80.113-35.539,80.113-80.113
	C321.054,247.567,284.913,211.426,240.941,211.426z"/>
<path style="fill:#44C4A1;" d="M160.828,291.539c0,43.972,35.539,80.113,80.113,80.113V211.426
	C196.969,211.426,160.828,247.567,160.828,291.539z"/>
<polygon style="fill:#31978C;" points="217.449,280.094 217.449,347.558 264.433,347.558 264.433,280.094 281.299,280.094 
	240.941,239.736 200.584,280.094 "/>
<polygon style="fill:#FFFFFF;" points="217.449,275.878 217.449,343.341 264.433,343.341 264.433,275.878 281.299,275.878 
	240.941,235.52 200.584,275.878 "/>
<g>
</g>
<g>
</g>
<g>
</g>
<g>
</g>
<g>
</g>
<g>
</g>
<g>
</g>
<g>
</g>
<g>
</g>
<g>
</g>
<g>
</g>
<g>
</g>
<g>
</g>
<g>
</g>
<g>
</g>
</svg>
